<svg width="15" height="15" viewBox="0 0 15 15" fill="none" xmlns="http://www.w3.org/2000/svg">
<path d="M4.01318 14.5V5.15625H1.10693V14.5H4.01318ZM2.54443 3.90625C3.48193 3.90625 4.23193 3.125 4.23193 2.1875C4.23193 1.28125 3.48193 0.53125 2.54443 0.53125C1.63818 0.53125 0.888184 1.28125 0.888184 2.1875C0.888184 3.125 1.63818 3.90625 2.54443 3.90625ZM14.8569 14.5H14.8882V9.375C14.8882 6.875 14.3257 4.9375 11.3882 4.9375C9.98193 4.9375 9.04443 5.71875 8.63818 6.4375H8.60693V5.15625H5.82568V14.5H8.73193V9.875C8.73193 8.65625 8.95068 7.5 10.4507 7.5C11.9507 7.5 11.9819 8.875 11.9819 9.96875V14.5H14.8569Z" fill="#141414"/>
</svg>
