<svg width="17" height="13" viewBox="0 0 17 13" fill="none" xmlns="http://www.w3.org/2000/svg">
<path d="M15.2319 3.25C15.8569 2.78125 16.4194 2.21875 16.8569 1.5625C16.2944 1.8125 15.6382 2 14.9819 2.0625C15.6694 1.65625 16.1694 1.03125 16.4194 0.25C15.7944 0.625 15.0757 0.90625 14.3569 1.0625C13.7319 0.40625 12.8882 0.03125 11.9507 0.03125C10.1382 0.03125 8.66943 1.5 8.66943 3.3125C8.66943 3.5625 8.70068 3.8125 8.76318 4.0625C6.04443 3.90625 3.60693 2.59375 1.98193 0.625C1.70068 1.09375 1.54443 1.65625 1.54443 2.28125C1.54443 3.40625 2.10693 4.40625 3.01318 5C2.48193 4.96875 1.95068 4.84375 1.51318 4.59375V4.625C1.51318 6.21875 2.63818 7.53125 4.13818 7.84375C3.88818 7.90625 3.57568 7.96875 3.29443 7.96875C3.07568 7.96875 2.88818 7.9375 2.66943 7.90625C3.07568 9.21875 4.29443 10.1562 5.73193 10.1875C4.60693 11.0625 3.20068 11.5938 1.66943 11.5938C1.38818 11.5938 1.13818 11.5625 0.888184 11.5312C2.32568 12.4688 4.04443 13 5.91943 13C11.9507 13 15.2319 8.03125 15.2319 3.6875C15.2319 3.53125 15.2319 3.40625 15.2319 3.25Z" fill="#141414"/>
</svg>
