<!-- Generated by IcoMoon.io -->
<svg version="1.1" xmlns="http://www.w3.org/2000/svg" width="32" height="32" viewBox="0 0 32 32">
<title>in</title>
<path d="M8.561 30.933v-19.933h-6.2v19.933h6.2zM5.428 8.333c2 0 3.6-1.667 3.6-3.667 0-1.933-1.6-3.533-3.6-3.533-1.933 0-3.533 1.6-3.533 3.533 0 2 1.6 3.667 3.533 3.667zM31.695 30.933h0.067v-10.933c0-5.333-1.2-9.467-7.467-9.467-3 0-5 1.667-5.867 3.2h-0.067v-2.733h-5.933v19.933h6.2v-9.867c0-2.6 0.467-5.067 3.667-5.067s3.267 2.933 3.267 5.267v9.667h6.133z"></path>
</svg>
