<!-- Generated by IcoMoon.io -->
<svg version="1.1" xmlns="http://www.w3.org/2000/svg" width="31" height="32" viewBox="0 0 31 32">
<title>Logo</title>
<path fill="none" stroke="#7a9ca5" stroke-linejoin="miter" stroke-linecap="butt" stroke-miterlimit="4" stroke-width="2.3529" d="M29.882 16c0 7.927-6.426 14.353-14.353 14.353s-14.353-6.426-14.353-14.353c0-7.927 6.426-14.353 14.353-14.353s14.353 6.426 14.353 14.353z"></path>
<path fill="none" stroke="#7a9ca5" stroke-linejoin="round" stroke-linecap="round" stroke-miterlimit="4" stroke-width="2.3529" d="M23.309 11.938c0.118 1.228-0.326 2.459-1.235 3.423l-5.442 5.785-7.496 0.721-0.631-6.555 5.451-5.778c0.909-0.964 2.209-1.581 3.613-1.716l4.911 0.118 0.829 4.002z"></path>
<path fill="none" stroke="#7a9ca5" stroke-linejoin="round" stroke-linecap="round" stroke-miterlimit="4" stroke-width="2.3529" d="M18.824 11.765l-14.118 14.118"></path>
<path fill="none" stroke="#7a9ca5" stroke-linejoin="round" stroke-linecap="round" stroke-miterlimit="4" stroke-width="2.3529" d="M19.765 17.412h-6.588"></path>
<path fill="none" stroke="#7a9ca5" stroke-linejoin="round" stroke-linecap="round" stroke-miterlimit="4" stroke-width="2.3529" d="M18.824 11.765h-6.588"></path>
</svg>
