<!-- Generated by IcoMoon.io -->
<svg version="1.1" xmlns="http://www.w3.org/2000/svg" width="32" height="32" viewBox="0 0 32 32">
<title>Vector</title>
<path fill="none" stroke="#7a9ca5" stroke-linejoin="round" stroke-linecap="round" stroke-miterlimit="4" stroke-width="2.7826" d="M19.392 6.957c1.359 0.265 2.608 0.93 3.587 1.909s1.644 2.228 1.909 3.587l-5.496-5.496zM19.392 1.391c2.823 0.314 5.456 1.578 7.466 3.585s3.277 4.639 3.595 7.462l-11.061-11.047zM29.062 23.541v4.174c0.002 0.387-0.078 0.771-0.233 1.126s-0.383 0.674-0.668 0.936c-0.285 0.262-0.623 0.461-0.99 0.585s-0.756 0.17-1.142 0.135c-4.281-0.465-8.394-1.928-12.007-4.271-3.362-2.136-6.212-4.986-8.348-8.348-2.351-3.63-3.815-7.762-4.271-12.063-0.035-0.385 0.011-0.772 0.134-1.139s0.322-0.703 0.582-0.988c0.26-0.285 0.577-0.513 0.931-0.669s0.735-0.237 1.122-0.237h4.174c0.675-0.007 1.33 0.232 1.842 0.673s0.846 1.052 0.941 1.72c0.176 1.336 0.503 2.647 0.974 3.91 0.187 0.498 0.228 1.039 0.117 1.559s-0.369 0.998-0.743 1.376l-1.767 1.767c1.981 3.483 4.865 6.367 8.348 8.348l1.767-1.767c0.378-0.374 0.856-0.632 1.376-0.743s1.062-0.070 1.559 0.117c1.262 0.471 2.574 0.798 3.91 0.974 0.676 0.095 1.293 0.436 1.734 0.957s0.676 1.186 0.659 1.868z"></path>
</svg>
